{"asset":{"generator":"3D Builder","version":"2.0"},"scene":0,"scenes":[{"nodes":[0]}],"nodes":[{"mesh":0,"matrix":[0.039370074868202209,0,0,0,0,-4.6932786545994531E-9,-0.039370071142911911,0,0,0.039370071142911911,-4.6932786545994531E-9,0,0,0.23709097504615784,-2.826345024686816E-8,1]}],"meshes":[{"primitives":[{"attributes":{"POSITION":0,"COLOR_0":1},"mode":4,"indices":2}]}],"accessors":[{"bufferView":0,"byteOffset":0,"count":178105,"componentType":5126,"type":"VEC3","min":[-0.82999712228775024,-1.7817518711090088,-6.0221114158630371],"max":[0.79443454742431641,0.99985313415527344,-0.861339271068573]},{"bufferView":1,"byteOffset":0,"count":178105,"componentType":5121,"type":"VEC4","normalized":true},{"bufferView":2,"byteOffset":0,"count":1074660,"componentType":5125,"type":"SCALAR"}],"bufferViews":[{"buffer":0,"byteOffset":0,"byteLength":2137260,"byteStride":12,"target":34962},{"buffer":0,"byteOffset":2137260,"byteLength":712420,"byteStride":4,"target":34962},{"buffer":0,"byteOffset":2849680,"byteLength":4298640,"target":34963}],"buffers":[{"byteLength":7148320,"uri":"support carafe Ypsilon.bin"}]}